<?xml version="1.0" encoding="utf-8"?>
<!-- Generator: Adobe Illustrator 24.1.0, SVG Export Plug-In . SVG Version: 6.00 Build 0)  -->
<svg version="1.1" id="Layer_1" xmlns="http://www.w3.org/2000/svg" xmlns:xlink="http://www.w3.org/1999/xlink" x="0px" y="0px"
	 viewBox="0 0 393.3 78.6" style="enable-background:new 0 0 393.3 78.6;" xml:space="preserve">
<style type="text/css">
	.st0{fill:#FFFFFF;}
</style>
<g id="Art">
	<g>
		<path class="st0" d="M392.8,35.3v-4.9H387v-7.1h-4.9v7.1h-4.6v4.9h4.6v14.2c0,4.1,3.4,7.5,7.5,7.5h3.3v-4.9h-3.3
			c-1.4,0-2.6-1.1-2.6-2.6V35.3H392.8z"/>
		<path class="st0" d="M364.2,29.9c5.3,0,9.5,4.3,9.5,9.6v8c0,5.2-4.3,9.6-9.5,9.6h-1.9c-5.2,0-9.5-4.3-9.5-9.6v-8
			c0-5.3,4.3-9.6,9.5-9.6H364.2z M357.7,39.5v8c0,2.6,2.1,4.6,4.6,4.6h1.9c2.6,0,4.6-2.1,4.6-4.6v-8c0-2.6-2-4.6-4.6-4.6h-1.9
			C359.8,34.8,357.7,36.9,357.7,39.5z"/>
		<path class="st0" d="M347.4,39.5v8c0,5.3-4.3,9.6-9.5,9.6h-0.6c-2.2,0-4.3-0.8-5.9-2.1v10.6h-4.9V30.4h4.9V32
			c1.6-1.3,3.6-2.1,5.9-2.1h0.6C343.1,29.9,347.4,34.2,347.4,39.5z M342.5,39.5c0-2.5-2-4.6-4.6-4.6H336c-2.5,0-4.6,2.1-4.6,4.6v8
			c0,2.6,2.1,4.6,4.6,4.6h1.9c2.6,0,4.6-2.1,4.6-4.6V39.5z"/>
		<path class="st0" d="M303.4,48.4c0.5,2.1,2.3,3.7,4.6,3.7h3.4c2.5,0,4.6-2.1,4.6-4.6c0-2.9-1.8-4.6-4.4-5.6l-4.5-1.7
			c-4.2-1.6-7.7-4.4-7.7-9.7c0-5.3,4.3-9.6,9.5-9.6h2.4c4.4,0,8.2,3,9.2,7.2l-4.8,1.4c-0.4-2.1-2.3-3.6-4.5-3.6H309
			c-2.6,0-4.6,2.1-4.6,4.6c0,2,0.7,3.5,4.7,5.1l4.5,1.8c4.6,1.9,7.5,5.3,7.5,10.1c0,5.3-4.3,9.5-9.5,9.5H308c-4.5,0-8.2-3.1-9.3-7.2
			L303.4,48.4z"/>
		<path class="st0" d="M294,35.3v-4.9h-5.8v-7.1h-4.9v7.1h-4.6v4.9h4.6v14.2c0,4.1,3.4,7.5,7.5,7.5h3.3v-4.9h-3.3
			c-1.4,0-2.6-1.1-2.6-2.6V35.3H294z"/>
		<path class="st0" d="M274.4,39.5v17.1h-4.9V39.5c0-2.6-2-4.6-4.6-4.6H263c-2.5,0-4.6,2.1-4.6,4.6v17.1h-4.9V21.4h4.9V32
			c1.6-1.3,3.6-2.1,5.9-2.1h0.6C270.1,29.9,274.4,34.2,274.4,39.5z"/>
		<path class="st0" d="M247.1,30.4v26c0,5.3-4.2,9.5-9.5,9.5h-2c-4.5,0-8.2-3.1-9.2-7.2l4.7-1.4c0.5,2,2.3,3.6,4.5,3.6h2
			c2.5,0,4.6-2.1,4.6-4.6v-3.1c-1.6,1.3-3.6,2.1-5.9,2.1h-0.6c-5.2,0-9.5-4.3-9.5-9.6v-6.4c0-5.3,4.3-9.6,9.5-9.6h0.6
			c2.2,0,4.3,0.8,5.9,2.1v-1.6L247.1,30.4L247.1,30.4z M242.1,45.9v-6.4c0-2.6-2-4.6-4.6-4.6h-1.9c-2.5,0-4.6,2.1-4.6,4.6v6.4
			c0,2.5,2.1,4.6,4.6,4.6h1.9C240.1,50.5,242.1,48.4,242.1,45.9z"/>
		<path class="st0" d="M204.6,30.4v17.1c0,2.6,2,4.6,4.6,4.6h1.9c2.6,0,4.6-2.1,4.6-4.6V30.4h4.9v17.1c0,5.3-4.3,9.5-9.5,9.5h-1.9
			c-5.3,0-9.5-4.3-9.5-9.6V30.4L204.6,30.4L204.6,30.4z"/>
		<path class="st0" d="M184.3,29.9c5.3,0,9.5,4.3,9.5,9.6v8c0,5.2-4.3,9.6-9.5,9.6h-1.9c-5.2,0-9.5-4.3-9.5-9.6v-8
			c0-5.3,4.3-9.6,9.5-9.6H184.3z M177.9,39.5v8c0,2.6,2.1,4.6,4.6,4.6h1.9c2.6,0,4.6-2.1,4.6-4.6v-8c0-2.6-2-4.6-4.6-4.6h-1.9
			C180,34.8,177.9,36.9,177.9,39.5z"/>
		<path class="st0" d="M167.2,39.5v17.1h-4.9V39.5c0-2.6-2-4.6-4.6-4.6h-1.9c-2.5,0-4.6,2.1-4.6,4.6v17.1h-4.9V21.4h4.9V32
			c1.6-1.3,3.6-2.1,5.9-2.1h0.6C163,29.9,167.2,34.2,167.2,39.5z"/>
		<path class="st0" d="M141.1,21.4v4.9h-9.9v30.2h-4.9V26.4h-9.9v-4.9L141.1,21.4L141.1,21.4z"/>
		<circle class="st0" cx="69.3" cy="68.8" r="9.8"/>
		<polygon class="st0" points="78.5,19.5 0.5,19.5 0.5,24.4 27.3,24.4 27.3,78 32.2,78 32.2,24.4 37,24.4 37,78 41.9,78 41.9,24.4 
			46.8,24.4 46.8,78 51.7,78 51.7,24.4 78.5,24.4 		"/>
		<rect x="0.5" y="9.8" class="st0" width="78" height="4.9"/>
		<rect x="0.5" class="st0" width="78" height="4.9"/>
	</g>
</g>
</svg>
